<svg width="1em" height="1em" viewBox="0 0 36 36" xmlns="http://www.w3.org/2000/svg" class="larkui-icon larkui-icon-editor-main-code-block"><defs><rect id="3130674827a" x="0" y="0" width="36" height="36" rx="6"></rect></defs><g fill="none" fill-rule="evenodd"><rect stroke="#E7E9E8" fill="#FFF" x="0.5" y="0.5" width="35" height="35" rx="6"></rect><rect fill="#BEC0BF" x="16" y="13.579" width="16" height="1" rx="0.5"></rect><rect fill="#BEC0BF" x="16" y="25" width="16" height="1" rx="0.5"></rect><path d="M20.5 30h14.628a.5.5 0 1 1 0 1H20.5a.5.5 0 1 1 0-1Z" fill="#1672F3"></path><rect fill="#ED740C" x="16" y="19" width="9" height="1" rx="0.5"></rect><path fill="#D7DBD9" d="M5.875 5h29.538v5H5l-.15-2.648z"></path><path d="M4.847 35.413c-.22-4.188-.331-8.659-.331-13.413 0-5.126.128-10.187.385-15.185a2 2 0 0 1 1.914-1.899 375.315 375.315 0 0 1 16.072-.321c4.202 0 8.377.057 12.526.173" stroke="currentColor"></path><g transform="translate(9 13.58)" fill="#BEC0BF"><path d="M.5 0h2a.5.5 0 0 1 0 1h-2a.5.5 0 1 1 0-1Z"></path><rect y="5.421" width="3" height="1" rx="0.5"></rect><rect y="11.421" width="3" height="1" rx="0.5"></rect><rect y="16.421" width="3" height="1" rx="0.5"></rect></g><rect stroke="#E7E9E8" x="0.5" y="0.5" width="35" height="35" rx="6"></rect></g></svg>