<svg width="1em" height="1em" viewBox="0 0 36 36" xmlns="http://www.w3.org/2000/svg" class="larkui-icon larkui-icon-editor-main-column-splitting"><defs><rect id="2632481311a" x="0" y="0" width="36" height="36" rx="6"></rect></defs><g fill="none" fill-rule="evenodd"><rect stroke="#E7E9E8" fill="#FFF" x="0.5" y="0.5" width="35" height="35" rx="6"></rect><rect fill="#D7DBD9" x="5" y="5" width="26" height="1.5" rx="0.75"></rect><path d="M5.5 10.206h14a.5.5 0 1 1 0 1h-14a.5.5 0 1 1 0-1Z" fill="#D7DBD9"></path><path d="M7.256 15h7.425a2 2 0 0 1 1.999 2.084 129.676 129.676 0 0 0 0 10.832A2 2 0 0 1 14.683 30H7.507a2 2 0 0 1-1.993-1.815 61.955 61.955 0 0 1-.258-5.685V17a2 2 0 0 1 2-2Z" stroke="currentColor"></path><path d="M31 27.346v.346C31 28.967 30.124 30 29.044 30h-7.557c-1.035-.001-1.89-.953-1.951-2.172a106.926 106.926 0 0 1-.131-5.328c0-1.8.043-3.575.13-5.328.062-1.219.917-2.171 1.952-2.172h7.557C30.124 15 31 16.033 31 17.308v6.31" stroke="currentColor" stroke-linecap="round" stroke-linejoin="round"></path><rect stroke="#E7E9E8" x="0.5" y="0.5" width="35" height="35" rx="6"></rect></g></svg>