<svg width="1em" height="1em" viewBox="0 0 36 36" xmlns="http://www.w3.org/2000/svg" class="larkui-icon larkui-icon-editor-main-folding-block"><defs><rect id="2263830151a" x="0" y="0" width="36" height="36" rx="6"></rect></defs><g fill="none" fill-rule="evenodd"><rect stroke="#E7E9E8" fill="#FFF" x="0.5" y="0.5" width="35" height="35" rx="6"></rect><path d="m6.81 10.637 3.909 3.077a1 1 0 0 1 0 1.572l-3.91 3.077A.5.5 0 0 1 6 17.97v-6.94a.5.5 0 0 1 .81-.393Z" fill="currentColor"></path><path d="M14.75 13.656h20.5a.75.75 0 1 1 0 1.5h-20.5a.75.75 0 0 1 0-1.5Z" fill="#BEC0BF"></path><path d="M14.5 19h14a.5.5 0 1 1 0 1h-14a.5.5 0 1 1 0-1Z" fill="#D7DBD9"></path><rect fill="#D7DBD9" x="14" y="24" width="15" height="1" rx="0.5"></rect><rect stroke="#E7E9E8" x="0.5" y="0.5" width="35" height="35" rx="6"></rect></g></svg>