<svg width="1em" height="1em" viewBox="0 0 36 36" xmlns="http://www.w3.org/2000/svg" class="larkui-icon larkui-icon-editor-main-reference"><defs><rect id="2992372932a" x="0" y="0" width="36" height="36" rx="6"></rect></defs><g fill="none" fill-rule="evenodd"><rect stroke="#E7E9E8" fill="#FFF" x="0.5" y="0.5" width="35" height="35" rx="6"></rect><rect fill="#8A8F8D" x="8" y="8" width="2.5" height="20" rx="0.5"></rect><path d="M15.75 9.5h19.5a.75.75 0 1 1 0 1.5h-19.5a.75.75 0 1 1 0-1.5ZM15.5 15h18a.5.5 0 1 1 0 1h-18a.5.5 0 1 1 0-1Z" fill="#D7DBD9"></path><rect fill="#D7DBD9" x="15" y="20" width="15" height="1" rx="0.5"></rect><rect fill="#D7DBD9" x="15" y="25" width="12" height="1" rx="0.5"></rect><rect stroke="#E7E9E8" x="0.5" y="0.5" width="35" height="35" rx="6"></rect></g></svg>